STARTFONT 2.1
COMMENT Recovered from ar1.1:GATES3 1 (Xerox Alto CONVERT font source (AL) recovered from MIT CADR AR1 ARC!!!)
FONT MIT-CADR-GATES3-AL-AR1
SIZE 32 72 72
FONTBOUNDINGBOX 32 32 0 0
STARTPROPERTIES 2
FONT_ASCENT 32
FONT_DESCENT 0
ENDPROPERTIES
CHARS 128
STARTCHAR C0000
ENCODING -1 0
SWIDTH 0 0
DWIDTH 0 0
BBX 0 32 0 0
BITMAP
00
00
00
00
00
00
00
00
00
00
00
00
00
00
00
00
00
00
00
00
00
00
00
00
00
00
00
00
00
00
00
00
ENDCHAR
STARTCHAR C0001
ENCODING -1 1
SWIDTH 0 0
DWIDTH 0 0
BBX 0 32 0 0
BITMAP
00
00
00
00
00
00
00
00
00
00
00
00
00
00
00
00
00
00
00
00
00
00
00
00
00
00
00
00
00
00
00
00
ENDCHAR
STARTCHAR C0002
ENCODING -1 2
SWIDTH 0 0
DWIDTH 0 0
BBX 0 32 0 0
BITMAP
00
00
00
00
00
00
00
00
00
00
00
00
00
00
00
00
00
00
00
00
00
00
00
00
00
00
00
00
00
00
00
00
ENDCHAR
STARTCHAR C0003
ENCODING -1 3
SWIDTH 0 0
DWIDTH 0 0
BBX 0 32 0 0
BITMAP
00
00
00
00
00
00
00
00
00
00
00
00
00
00
00
00
00
00
00
00
00
00
00
00
00
00
00
00
00
00
00
00
ENDCHAR
STARTCHAR C0004
ENCODING -1 4
SWIDTH 0 0
DWIDTH 0 0
BBX 0 32 0 0
BITMAP
00
00
00
00
00
00
00
00
00
00
00
00
00
00
00
00
00
00
00
00
00
00
00
00
00
00
00
00
00
00
00
00
ENDCHAR
STARTCHAR C0005
ENCODING -1 5
SWIDTH 0 0
DWIDTH 0 0
BBX 0 32 0 0
BITMAP
00
00
00
00
00
00
00
00
00
00
00
00
00
00
00
00
00
00
00
00
00
00
00
00
00
00
00
00
00
00
00
00
ENDCHAR
STARTCHAR C0006
ENCODING -1 6
SWIDTH 0 0
DWIDTH 0 0
BBX 0 32 0 0
BITMAP
00
00
00
00
00
00
00
00
00
00
00
00
00
00
00
00
00
00
00
00
00
00
00
00
00
00
00
00
00
00
00
00
ENDCHAR
STARTCHAR C0007
ENCODING -1 7
SWIDTH 0 0
DWIDTH 0 0
BBX 0 32 0 0
BITMAP
00
00
00
00
00
00
00
00
00
00
00
00
00
00
00
00
00
00
00
00
00
00
00
00
00
00
00
00
00
00
00
00
ENDCHAR
STARTCHAR C0008
ENCODING -1 8
SWIDTH 0 0
DWIDTH 0 0
BBX 0 32 0 0
BITMAP
00
00
00
00
00
00
00
00
00
00
00
00
00
00
00
00
00
00
00
00
00
00
00
00
00
00
00
00
00
00
00
00
ENDCHAR
STARTCHAR C0009
ENCODING -1 9
SWIDTH 0 0
DWIDTH 0 0
BBX 0 32 0 0
BITMAP
00
00
00
00
00
00
00
00
00
00
00
00
00
00
00
00
00
00
00
00
00
00
00
00
00
00
00
00
00
00
00
00
ENDCHAR
STARTCHAR C000A
ENCODING -1 10
SWIDTH 0 0
DWIDTH 0 0
BBX 0 32 0 0
BITMAP
00
00
00
00
00
00
00
00
00
00
00
00
00
00
00
00
00
00
00
00
00
00
00
00
00
00
00
00
00
00
00
00
ENDCHAR
STARTCHAR C000B
ENCODING -1 11
SWIDTH 0 0
DWIDTH 0 0
BBX 0 32 0 0
BITMAP
00
00
00
00
00
00
00
00
00
00
00
00
00
00
00
00
00
00
00
00
00
00
00
00
00
00
00
00
00
00
00
00
ENDCHAR
STARTCHAR C000C
ENCODING -1 12
SWIDTH 0 0
DWIDTH 0 0
BBX 0 32 0 0
BITMAP
00
00
00
00
00
00
00
00
00
00
00
00
00
00
00
00
00
00
00
00
00
00
00
00
00
00
00
00
00
00
00
00
ENDCHAR
STARTCHAR C000D
ENCODING -1 13
SWIDTH 0 0
DWIDTH 0 0
BBX 0 32 0 0
BITMAP
00
00
00
00
00
00
00
00
00
00
00
00
00
00
00
00
00
00
00
00
00
00
00
00
00
00
00
00
00
00
00
00
ENDCHAR
STARTCHAR C000E
ENCODING -1 14
SWIDTH 0 0
DWIDTH 0 0
BBX 0 32 0 0
BITMAP
00
00
00
00
00
00
00
00
00
00
00
00
00
00
00
00
00
00
00
00
00
00
00
00
00
00
00
00
00
00
00
00
ENDCHAR
STARTCHAR C000F
ENCODING -1 15
SWIDTH 0 0
DWIDTH 0 0
BBX 0 32 0 0
BITMAP
00
00
00
00
00
00
00
00
00
00
00
00
00
00
00
00
00
00
00
00
00
00
00
00
00
00
00
00
00
00
00
00
ENDCHAR
STARTCHAR C0010
ENCODING -1 16
SWIDTH 0 0
DWIDTH 0 0
BBX 0 32 0 0
BITMAP
00
00
00
00
00
00
00
00
00
00
00
00
00
00
00
00
00
00
00
00
00
00
00
00
00
00
00
00
00
00
00
00
ENDCHAR
STARTCHAR C0011
ENCODING -1 17
SWIDTH 0 0
DWIDTH 0 0
BBX 0 32 0 0
BITMAP
00
00
00
00
00
00
00
00
00
00
00
00
00
00
00
00
00
00
00
00
00
00
00
00
00
00
00
00
00
00
00
00
ENDCHAR
STARTCHAR C0012
ENCODING -1 18
SWIDTH 0 0
DWIDTH 0 0
BBX 0 32 0 0
BITMAP
00
00
00
00
00
00
00
00
00
00
00
00
00
00
00
00
00
00
00
00
00
00
00
00
00
00
00
00
00
00
00
00
ENDCHAR
STARTCHAR C0013
ENCODING -1 19
SWIDTH 0 0
DWIDTH 0 0
BBX 0 32 0 0
BITMAP
00
00
00
00
00
00
00
00
00
00
00
00
00
00
00
00
00
00
00
00
00
00
00
00
00
00
00
00
00
00
00
00
ENDCHAR
STARTCHAR C0014
ENCODING -1 20
SWIDTH 0 0
DWIDTH 0 0
BBX 0 32 0 0
BITMAP
00
00
00
00
00
00
00
00
00
00
00
00
00
00
00
00
00
00
00
00
00
00
00
00
00
00
00
00
00
00
00
00
ENDCHAR
STARTCHAR C0015
ENCODING -1 21
SWIDTH 0 0
DWIDTH 0 0
BBX 0 32 0 0
BITMAP
00
00
00
00
00
00
00
00
00
00
00
00
00
00
00
00
00
00
00
00
00
00
00
00
00
00
00
00
00
00
00
00
ENDCHAR
STARTCHAR C0016
ENCODING -1 22
SWIDTH 0 0
DWIDTH 0 0
BBX 0 32 0 0
BITMAP
00
00
00
00
00
00
00
00
00
00
00
00
00
00
00
00
00
00
00
00
00
00
00
00
00
00
00
00
00
00
00
00
ENDCHAR
STARTCHAR C0017
ENCODING -1 23
SWIDTH 0 0
DWIDTH 0 0
BBX 0 32 0 0
BITMAP
00
00
00
00
00
00
00
00
00
00
00
00
00
00
00
00
00
00
00
00
00
00
00
00
00
00
00
00
00
00
00
00
ENDCHAR
STARTCHAR C0018
ENCODING -1 24
SWIDTH 0 0
DWIDTH 0 0
BBX 0 32 0 0
BITMAP
00
00
00
00
00
00
00
00
00
00
00
00
00
00
00
00
00
00
00
00
00
00
00
00
00
00
00
00
00
00
00
00
ENDCHAR
STARTCHAR C0019
ENCODING -1 25
SWIDTH 0 0
DWIDTH 0 0
BBX 0 32 0 0
BITMAP
00
00
00
00
00
00
00
00
00
00
00
00
00
00
00
00
00
00
00
00
00
00
00
00
00
00
00
00
00
00
00
00
ENDCHAR
STARTCHAR C001A
ENCODING -1 26
SWIDTH 0 0
DWIDTH 0 0
BBX 0 32 0 0
BITMAP
00
00
00
00
00
00
00
00
00
00
00
00
00
00
00
00
00
00
00
00
00
00
00
00
00
00
00
00
00
00
00
00
ENDCHAR
STARTCHAR C001B
ENCODING -1 27
SWIDTH 0 0
DWIDTH 0 0
BBX 0 32 0 0
BITMAP
00
00
00
00
00
00
00
00
00
00
00
00
00
00
00
00
00
00
00
00
00
00
00
00
00
00
00
00
00
00
00
00
ENDCHAR
STARTCHAR C001C
ENCODING -1 28
SWIDTH 0 0
DWIDTH 0 0
BBX 0 32 0 0
BITMAP
00
00
00
00
00
00
00
00
00
00
00
00
00
00
00
00
00
00
00
00
00
00
00
00
00
00
00
00
00
00
00
00
ENDCHAR
STARTCHAR C001D
ENCODING -1 29
SWIDTH 0 0
DWIDTH 0 0
BBX 0 32 0 0
BITMAP
00
00
00
00
00
00
00
00
00
00
00
00
00
00
00
00
00
00
00
00
00
00
00
00
00
00
00
00
00
00
00
00
ENDCHAR
STARTCHAR C001E
ENCODING -1 30
SWIDTH 0 0
DWIDTH 0 0
BBX 0 32 0 0
BITMAP
00
00
00
00
00
00
00
00
00
00
00
00
00
00
00
00
00
00
00
00
00
00
00
00
00
00
00
00
00
00
00
00
ENDCHAR
STARTCHAR C001F
ENCODING -1 31
SWIDTH 0 0
DWIDTH 0 0
BBX 0 32 0 0
BITMAP
00
00
00
00
00
00
00
00
00
00
00
00
00
00
00
00
00
00
00
00
00
00
00
00
00
00
00
00
00
00
00
00
ENDCHAR
STARTCHAR C0020
ENCODING -1 32
SWIDTH 0 0
DWIDTH 0 0
BBX 0 32 0 0
BITMAP
00
00
00
00
00
00
00
00
00
00
00
00
00
00
00
00
00
00
00
00
00
00
00
00
00
00
00
00
00
00
00
00
ENDCHAR
STARTCHAR C0021
ENCODING -1 33
SWIDTH 188 0
DWIDTH 6 0
BBX 6 32 0 0
BITMAP
60
20
20
20
20
20
70
00
00
00
00
00
00
00
00
00
00
00
00
00
00
00
00
00
00
00
00
00
00
00
00
00
ENDCHAR
STARTCHAR C0022
ENCODING -1 34
SWIDTH 31 0
DWIDTH 1 0
BBX 1 32 0 0
BITMAP
00
00
00
00
00
00
00
00
00
00
00
00
00
00
00
00
00
00
00
00
00
00
00
00
00
00
00
00
00
00
00
00
ENDCHAR
STARTCHAR C0023
ENCODING -1 35
SWIDTH 188 0
DWIDTH 6 0
BBX 6 32 0 0
BITMAP
70
88
08
30
08
88
70
00
00
00
00
00
00
00
00
00
00
00
00
00
00
00
00
00
00
00
00
00
00
00
00
00
ENDCHAR
STARTCHAR C0024
ENCODING -1 36
SWIDTH 188 0
DWIDTH 6 0
BBX 6 32 0 0
BITMAP
10
30
50
90
F8
10
38
00
00
00
00
00
00
00
00
00
00
00
00
00
00
00
00
00
00
00
00
00
00
00
00
00
ENDCHAR
STARTCHAR C0025
ENCODING -1 37
SWIDTH 188 0
DWIDTH 6 0
BBX 6 32 0 0
BITMAP
F8
80
F0
08
08
88
70
00
00
00
00
00
00
00
00
00
00
00
00
00
00
00
00
00
00
00
00
00
00
00
00
00
ENDCHAR
STARTCHAR C0026
ENCODING -1 38
SWIDTH 188 0
DWIDTH 6 0
BBX 6 32 0 0
BITMAP
F8
88
10
10
20
20
20
00
00
00
00
00
00
00
00
00
00
00
00
00
00
00
00
00
00
00
00
00
00
00
00
00
ENDCHAR
STARTCHAR C0027
ENCODING -1 39
SWIDTH 31 0
DWIDTH 1 0
BBX 1 32 0 0
BITMAP
00
00
00
00
00
00
00
00
00
00
00
00
00
00
00
00
00
00
00
00
00
00
00
00
00
00
00
00
00
00
00
00
ENDCHAR
STARTCHAR C0028
ENCODING -1 40
SWIDTH 188 0
DWIDTH 6 0
BBX 6 32 0 0
BITMAP
70
88
88
78
08
08
70
00
00
00
00
00
00
00
00
00
00
00
00
00
00
00
00
00
00
00
00
00
00
00
00
00
ENDCHAR
STARTCHAR C0029
ENCODING -1 41
SWIDTH 188 0
DWIDTH 6 0
BBX 6 32 0 0
BITMAP
70
98
A8
C8
88
88
70
00
00
00
00
00
00
00
00
00
00
00
00
00
00
00
00
00
00
00
00
00
00
00
00
00
ENDCHAR
STARTCHAR C002A
ENCODING -1 42
SWIDTH 188 0
DWIDTH 6 0
BBX 6 32 0 0
BITMAP
70
88
88
70
88
88
70
00
00
00
00
00
00
00
00
00
00
00
00
00
00
00
00
00
00
00
00
00
00
00
00
00
ENDCHAR
STARTCHAR C002B
ENCODING -1 43
SWIDTH 0 0
DWIDTH 0 0
BBX 0 32 0 0
BITMAP
00
00
00
00
00
00
00
00
00
00
00
00
00
00
00
00
00
00
00
00
00
00
00
00
00
00
00
00
00
00
00
00
ENDCHAR
STARTCHAR C002C
ENCODING -1 44
SWIDTH 62 0
DWIDTH 2 0
BBX 2 32 0 0
BITMAP
80
00
00
00
00
00
00
00
00
00
00
00
00
00
00
00
00
00
00
00
00
00
00
00
00
00
00
00
00
00
00
00
ENDCHAR
STARTCHAR C002D
ENCODING -1 45
SWIDTH 188 0
DWIDTH 6 0
BBX 6 32 0 0
BITMAP
00
00
00
78
00
00
00
00
00
00
00
00
00
00
00
00
00
00
00
00
00
00
00
00
00
00
00
00
00
00
00
00
ENDCHAR
STARTCHAR C002E
ENCODING -1 46
SWIDTH 219 0
DWIDTH 7 0
BBX 7 32 0 0
BITMAP
00
00
00
1C
1C
1C
00
00
00
00
00
00
00
00
00
00
00
00
00
00
00
00
00
00
00
00
00
00
00
00
00
00
ENDCHAR
STARTCHAR C002F
ENCODING -1 47
SWIDTH 31 0
DWIDTH 1 0
BBX 1 32 0 0
BITMAP
00
00
00
00
00
00
00
00
00
00
00
00
00
00
00
00
00
00
00
00
00
00
00
00
00
00
00
00
00
00
00
00
ENDCHAR
STARTCHAR C0030
ENCODING -1 48
SWIDTH 156 0
DWIDTH 5 0
BBX 5 32 0 0
BITMAP
70
90
90
90
60
00
00
00
00
00
00
00
00
00
00
00
00
00
00
00
00
00
00
00
00
00
00
00
00
00
00
00
ENDCHAR
STARTCHAR C0031
ENCODING -1 49
SWIDTH 125 0
DWIDTH 4 0
BBX 4 32 0 0
BITMAP
C0
40
40
40
E0
00
00
00
00
00
00
00
00
00
00
00
00
00
00
00
00
00
00
00
00
00
00
00
00
00
00
00
ENDCHAR
STARTCHAR C0032
ENCODING -1 50
SWIDTH 156 0
DWIDTH 5 0
BBX 5 32 0 0
BITMAP
60
90
20
40
F0
00
00
00
00
00
00
00
00
00
00
00
00
00
00
00
00
00
00
00
00
00
00
00
00
00
00
00
ENDCHAR
STARTCHAR C0033
ENCODING -1 51
SWIDTH 156 0
DWIDTH 5 0
BBX 5 32 0 0
BITMAP
E0
10
60
10
E0
00
00
00
00
00
00
00
00
00
00
00
00
00
00
00
00
00
00
00
00
00
00
00
00
00
00
00
ENDCHAR
STARTCHAR C0034
ENCODING -1 52
SWIDTH 156 0
DWIDTH 5 0
BBX 5 32 0 0
BITMAP
A0
A0
F0
20
70
00
00
00
00
00
00
00
00
00
00
00
00
00
00
00
00
00
00
00
00
00
00
00
00
00
00
00
ENDCHAR
STARTCHAR C0035
ENCODING -1 53
SWIDTH 156 0
DWIDTH 5 0
BBX 5 32 0 0
BITMAP
E0
80
E0
10
E0
00
00
00
00
00
00
00
00
00
00
00
00
00
00
00
00
00
00
00
00
00
00
00
00
00
00
00
ENDCHAR
STARTCHAR C0036
ENCODING -1 54
SWIDTH 156 0
DWIDTH 5 0
BBX 5 32 0 0
BITMAP
60
80
E0
90
60
00
00
00
00
00
00
00
00
00
00
00
00
00
00
00
00
00
00
00
00
00
00
00
00
00
00
00
ENDCHAR
STARTCHAR C0037
ENCODING -1 55
SWIDTH 156 0
DWIDTH 5 0
BBX 5 32 0 0
BITMAP
F0
10
20
40
80
00
00
00
00
00
00
00
00
00
00
00
00
00
00
00
00
00
00
00
00
00
00
00
00
00
00
00
ENDCHAR
STARTCHAR C0038
ENCODING -1 56
SWIDTH 156 0
DWIDTH 5 0
BBX 5 32 0 0
BITMAP
60
90
60
90
60
00
00
00
00
00
00
00
00
00
00
00
00
00
00
00
00
00
00
00
00
00
00
00
00
00
00
00
ENDCHAR
STARTCHAR C0039
ENCODING -1 57
SWIDTH 156 0
DWIDTH 5 0
BBX 5 32 0 0
BITMAP
60
90
70
10
60
00
00
00
00
00
00
00
00
00
00
00
00
00
00
00
00
00
00
00
00
00
00
00
00
00
00
00
ENDCHAR
STARTCHAR C003A
ENCODING -1 58
SWIDTH 125 0
DWIDTH 4 0
BBX 4 32 0 0
BITMAP
F0
F0
00
00
00
00
00
00
00
00
00
00
00
00
00
00
00
00
00
00
00
00
00
00
00
00
00
00
00
00
00
00
ENDCHAR
STARTCHAR C003B
ENCODING -1 59
SWIDTH 62 0
DWIDTH 2 0
BBX 2 32 0 0
BITMAP
C0
C0
C0
C0
C0
C0
C0
00
00
00
00
00
00
00
00
00
00
00
00
00
00
00
00
00
00
00
00
00
00
00
00
00
ENDCHAR
STARTCHAR C003C
ENCODING -1 60
SWIDTH 250 0
DWIDTH 8 0
BBX 8 32 0 0
BITMAP
00
06
18
60
80
60
18
06
00
00
00
00
00
00
00
00
00
00
00
00
00
00
00
00
00
00
00
00
00
00
00
00
ENDCHAR
STARTCHAR C003D
ENCODING -1 61
SWIDTH 0 0
DWIDTH 0 0
BBX 0 32 0 0
BITMAP
00
00
00
00
00
00
00
00
00
00
00
00
00
00
00
00
00
00
00
00
00
00
00
00
00
00
00
00
00
00
00
00
ENDCHAR
STARTCHAR C003E
ENCODING -1 62
SWIDTH 312 0
DWIDTH 10 0
BBX 10 32 0 0
BITMAP
0000
3000
0C00
0300
0080
0300
0C00
3000
0000
0000
0000
0000
0000
0000
0000
0000
0000
0000
0000
0000
0000
0000
0000
0000
0000
0000
0000
0000
0000
0000
0000
0000
ENDCHAR
STARTCHAR C003F
ENCODING -1 63
SWIDTH 0 0
DWIDTH 0 0
BBX 0 32 0 0
BITMAP
00
00
00
00
00
00
00
00
00
00
00
00
00
00
00
00
00
00
00
00
00
00
00
00
00
00
00
00
00
00
00
00
ENDCHAR
STARTCHAR C0040
ENCODING -1 64
SWIDTH 188 0
DWIDTH 6 0
BBX 6 32 0 0
BITMAP
70
88
10
20
40
80
F8
00
00
00
00
00
00
00
00
00
00
00
00
00
00
00
00
00
00
00
00
00
00
00
00
00
ENDCHAR
STARTCHAR C0041
ENCODING -1 65
SWIDTH 781 0
DWIDTH 25 0
BBX 25 32 0 0
BITMAP
00000000
7FC00000
403C0000
40038000
40006000
40001000
40000800
40000400
40000400
40000200
40000200
40000200
40000100
40000100
40000100
40000100
40000100
00000000
00000000
00000000
00000000
00000000
00000000
00000000
00000000
00000000
00000000
00000000
00000000
00000000
00000000
40000000
ENDCHAR
STARTCHAR C0042
ENCODING -1 66
SWIDTH 781 0
DWIDTH 25 0
BBX 25 32 0 0
BITMAP
00000000
00000000
00000000
00000000
00000000
00000000
00000000
00000000
00000000
00000000
00000000
00000000
00000000
00000000
00000000
00000000
40000000
40000100
40000100
40000100
40000100
40000200
40000200
40000200
40000400
40000400
40000800
40001000
40006000
40038000
403C0000
7FC00000
ENDCHAR
STARTCHAR C0043
ENCODING -1 67
SWIDTH 906 0
DWIDTH 29 0
BBX 29 32 0 0
BITMAP
00000000
7FC00000
20380000
10060000
10018000
08006000
08001000
04000800
04000400
04000200
02000100
02000080
02000040
02000020
02000010
02000010
02000010
00000000
00000000
00000000
00000000
00000000
00000000
00000000
00000000
00000000
00000000
00000000
00000000
00000000
00000000
00000000
ENDCHAR
STARTCHAR C0044
ENCODING -1 68
SWIDTH 906 0
DWIDTH 29 0
BBX 29 32 0 0
BITMAP
00000000
00000000
00000000
00000000
00000000
00000000
00000000
00000000
00000000
00000000
00000000
00000000
00000000
00000000
00000000
00000000
00000000
02000010
02000010
02000020
02000040
02000080
02000100
04000200
04000400
04000800
08001000
08006000
10018000
10060000
20380000
7FC00000
ENDCHAR
STARTCHAR C0045
ENCODING -1 69
SWIDTH 250 0
DWIDTH 8 0
BBX 8 32 0 0
BITMAP
00
40
20
10
10
08
08
04
04
04
02
02
02
02
02
02
02
00
00
00
00
00
00
00
00
00
00
00
00
00
00
00
ENDCHAR
STARTCHAR C0046
ENCODING -1 70
SWIDTH 250 0
DWIDTH 8 0
BBX 8 32 0 0
BITMAP
00
00
00
00
00
00
00
00
00
00
00
00
00
00
00
00
00
02
02
02
02
02
02
04
04
04
08
08
10
10
20
40
ENDCHAR
STARTCHAR C0047
ENCODING -1 71
SWIDTH 812 0
DWIDTH 26 0
BBX 26 32 0 0
BITMAP
60000000
58000000
46000000
41800000
40600000
40180000
40060000
40018000
40006000
40001800
40000600
40000180
40000080
00000000
00000000
00000000
00000000
00000000
00000000
00000000
00000000
00000000
00000000
00000000
00000000
00000000
00000000
00000000
00000000
00000000
00000000
00000000
ENDCHAR
STARTCHAR C0048
ENCODING -1 72
SWIDTH 781 0
DWIDTH 25 0
BBX 25 32 0 0
BITMAP
00000000
00000000
00000000
00000000
00000000
00000000
00000000
00000000
00000000
00000000
00000000
00000000
00000000
40000100
40000600
40001800
40006000
40018000
40060000
40180000
40600000
41800000
46000000
58000000
60000000
00000000
00000000
00000000
00000000
00000000
00000000
00000000
ENDCHAR
STARTCHAR C0049
ENCODING -1 73
SWIDTH 312 0
DWIDTH 10 0
BBX 10 32 0 0
BITMAP
0000
0000
0000
0000
3E00
4100
8080
8080
8080
8080
8080
4100
3E00
0000
0000
0000
0000
0000
0000
0000
0000
0000
0000
0000
0000
0000
0000
0000
0000
0000
0000
0000
ENDCHAR
STARTCHAR C004A
ENCODING -1 74
SWIDTH 0 0
DWIDTH 0 0
BBX 0 32 0 0
BITMAP
00
00
00
00
00
00
00
00
00
00
00
00
00
00
00
00
00
00
00
00
00
00
00
00
00
00
00
00
00
00
00
00
ENDCHAR
STARTCHAR C004B
ENCODING -1 75
SWIDTH 0 0
DWIDTH 0 0
BBX 0 32 0 0
BITMAP
00
00
00
00
00
00
00
00
00
00
00
00
00
00
00
00
00
00
00
00
00
00
00
00
00
00
00
00
00
00
00
00
ENDCHAR
STARTCHAR C004C
ENCODING -1 76
SWIDTH 0 0
DWIDTH 0 0
BBX 0 32 0 0
BITMAP
00
00
00
00
00
00
00
00
00
00
00
00
00
00
00
00
00
00
00
00
00
00
00
00
00
00
00
00
00
00
00
00
ENDCHAR
STARTCHAR C004D
ENCODING -1 77
SWIDTH 0 0
DWIDTH 0 0
BBX 0 32 0 0
BITMAP
00
00
00
00
00
00
00
00
00
00
00
00
00
00
00
00
00
00
00
00
00
00
00
00
00
00
00
00
00
00
00
00
ENDCHAR
STARTCHAR C004E
ENCODING -1 78
SWIDTH 0 0
DWIDTH 0 0
BBX 0 32 0 0
BITMAP
00
00
00
00
00
00
00
00
00
00
00
00
00
00
00
00
00
00
00
00
00
00
00
00
00
00
00
00
00
00
00
00
ENDCHAR
STARTCHAR C004F
ENCODING -1 79
SWIDTH 31 0
DWIDTH 1 0
BBX 1 32 0 0
BITMAP
00
00
00
00
00
00
00
00
00
00
00
00
00
00
00
00
00
00
00
00
00
00
00
00
00
00
00
00
00
00
00
00
ENDCHAR
STARTCHAR C0050
ENCODING -1 80
SWIDTH 656 0
DWIDTH 21 0
BBX 21 32 0 0
BITMAP
FFFFF0
800010
800010
800010
800010
800010
800010
800010
FFFFF0
000000
000000
000000
000000
000000
000000
000000
000000
000000
000000
000000
000000
000000
000000
000000
000000
000000
000000
000000
000000
000000
000000
000000
ENDCHAR
STARTCHAR C0051
ENCODING -1 81
SWIDTH 125 0
DWIDTH 4 0
BBX 4 32 0 0
BITMAP
40
40
40
E0
00
00
00
00
00
00
00
00
00
00
00
00
00
00
00
00
00
00
00
00
00
00
00
00
00
00
00
00
ENDCHAR
STARTCHAR C0052
ENCODING -1 82
SWIDTH 156 0
DWIDTH 5 0
BBX 5 32 0 0
BITMAP
00
00
00
10
F0
10
00
00
00
00
00
00
00
00
00
00
00
00
00
00
00
00
00
00
00
00
00
00
00
00
00
00
ENDCHAR
STARTCHAR C0053
ENCODING -1 83
SWIDTH 125 0
DWIDTH 4 0
BBX 4 32 0 0
BITMAP
E0
40
40
40
00
00
00
00
00
00
00
00
00
00
00
00
00
00
00
00
00
00
00
00
00
00
00
00
00
00
00
00
ENDCHAR
STARTCHAR C0054
ENCODING -1 84
SWIDTH 156 0
DWIDTH 5 0
BBX 5 32 0 0
BITMAP
00
00
00
80
F0
80
00
00
00
00
00
00
00
00
00
00
00
00
00
00
00
00
00
00
00
00
00
00
00
00
00
00
ENDCHAR
STARTCHAR C0055
ENCODING -1 85
SWIDTH 0 0
DWIDTH 0 0
BBX 0 32 0 0
BITMAP
00
00
00
00
00
00
00
00
00
00
00
00
00
00
00
00
00
00
00
00
00
00
00
00
00
00
00
00
00
00
00
00
ENDCHAR
STARTCHAR C0056
ENCODING -1 86
SWIDTH 0 0
DWIDTH 0 0
BBX 0 32 0 0
BITMAP
00
00
00
00
00
00
00
00
00
00
00
00
00
00
00
00
00
00
00
00
00
00
00
00
00
00
00
00
00
00
00
00
ENDCHAR
STARTCHAR C0057
ENCODING -1 87
SWIDTH 625 0
DWIDTH 20 0
BBX 20 32 0 0
BITMAP
000000
000000
07FF80
040080
0C00C0
040080
040080
040080
0C00C0
040080
040080
040080
0C00C0
040080
040080
040080
0C00C0
000000
000000
000000
000000
000000
000000
000000
000000
000000
000000
000000
000000
000000
000000
000000
ENDCHAR
STARTCHAR C0058
ENCODING -1 88
SWIDTH 625 0
DWIDTH 20 0
BBX 20 32 0 0
BITMAP
000000
040080
040080
040080
0C00C0
040080
040080
040080
0C00C0
040080
040080
040080
0C00C0
040080
040080
040080
0C00C0
040080
07FF80
000000
000000
000000
000000
000000
000000
000000
000000
000000
000000
000000
000000
000000
ENDCHAR
STARTCHAR C0059
ENCODING -1 89
SWIDTH 656 0
DWIDTH 21 0
BBX 21 32 0 0
BITMAP
000000
000000
000000
000000
088880
3FFFE0
200000
200000
200000
200000
200000
000000
000000
000000
000000
000000
000000
000000
000000
000000
000000
000000
000000
000000
000000
000000
000000
000000
000000
000000
000000
000000
ENDCHAR
STARTCHAR C005A
ENCODING -1 90
SWIDTH 625 0
DWIDTH 20 0
BBX 20 32 0 0
BITMAP
000000
000000
000000
000000
111100
3FFFC0
000040
000040
000040
000040
000040
000000
000000
000000
000000
000000
000000
000000
000000
000000
000000
000000
000000
000000
000000
000000
000000
000000
000000
000000
000000
000000
ENDCHAR
STARTCHAR C005B
ENCODING -1 91
SWIDTH 0 0
DWIDTH 0 0
BBX 0 32 0 0
BITMAP
00
00
00
00
00
00
00
00
00
00
00
00
00
00
00
00
00
00
00
00
00
00
00
00
00
00
00
00
00
00
00
00
ENDCHAR
STARTCHAR C005C
ENCODING -1 92
SWIDTH 0 0
DWIDTH 0 0
BBX 0 32 0 0
BITMAP
00
00
00
00
00
00
00
00
00
00
00
00
00
00
00
00
00
00
00
00
00
00
00
00
00
00
00
00
00
00
00
00
ENDCHAR
STARTCHAR C005D
ENCODING -1 93
SWIDTH 0 0
DWIDTH 0 0
BBX 0 32 0 0
BITMAP
00
00
00
00
00
00
00
00
00
00
00
00
00
00
00
00
00
00
00
00
00
00
00
00
00
00
00
00
00
00
00
00
ENDCHAR
STARTCHAR C005E
ENCODING -1 94
SWIDTH 0 0
DWIDTH 0 0
BBX 0 32 0 0
BITMAP
00
00
00
00
00
00
00
00
00
00
00
00
00
00
00
00
00
00
00
00
00
00
00
00
00
00
00
00
00
00
00
00
ENDCHAR
STARTCHAR C005F
ENCODING -1 95
SWIDTH 0 0
DWIDTH 0 0
BBX 0 32 0 0
BITMAP
00
00
00
00
00
00
00
00
00
00
00
00
00
00
00
00
00
00
00
00
00
00
00
00
00
00
00
00
00
00
00
00
ENDCHAR
STARTCHAR C0060
ENCODING -1 96
SWIDTH 0 0
DWIDTH 0 0
BBX 0 32 0 0
BITMAP
00
00
00
00
00
00
00
00
00
00
00
00
00
00
00
00
00
00
00
00
00
00
00
00
00
00
00
00
00
00
00
00
ENDCHAR
STARTCHAR C0061
ENCODING -1 97
SWIDTH 531 0
DWIDTH 17 0
BBX 17 32 0 0
BITMAP
000000
000000
7E0000
41C000
403000
400800
400400
400200
400200
400100
400100
400100
400100
000000
000000
000000
000000
000000
000000
000000
000000
000000
000000
000000
000000
000000
000000
000000
000000
000000
000000
000000
ENDCHAR
STARTCHAR C0062
ENCODING -1 98
SWIDTH 531 0
DWIDTH 17 0
BBX 17 32 0 0
BITMAP
000000
000000
000000
000000
000000
000000
000000
000000
000000
000000
000000
000000
000000
400100
400100
400100
400200
400200
400400
400800
403000
41C000
7E0000
000000
000000
000000
000000
000000
000000
000000
000000
000000
ENDCHAR
STARTCHAR C0063
ENCODING -1 99
SWIDTH 656 0
DWIDTH 21 0
BBX 21 32 0 0
BITMAP
000000
000000
780000
270000
10C000
103000
080C00
080300
080080
080040
040020
040010
040010
000000
000000
000000
000000
000000
000000
000000
000000
000000
000000
000000
000000
000000
000000
000000
000000
000000
000000
000000
ENDCHAR
STARTCHAR C0064
ENCODING -1 100
SWIDTH 656 0
DWIDTH 21 0
BBX 21 32 0 0
BITMAP
000000
000000
000000
000000
000000
000000
000000
000000
000000
000000
000000
000000
000000
040010
040020
080040
080080
080300
080C00
103000
10C000
270000
780000
000000
000000
000000
000000
000000
000000
000000
000000
000000
ENDCHAR
STARTCHAR C0065
ENCODING -1 101
SWIDTH 219 0
DWIDTH 7 0
BBX 7 32 0 0
BITMAP
00
00
40
20
10
10
08
08
08
08
04
04
04
00
00
00
00
00
00
00
00
00
00
00
00
00
00
00
00
00
00
00
ENDCHAR
STARTCHAR C0066
ENCODING -1 102
SWIDTH 219 0
DWIDTH 7 0
BBX 7 32 0 0
BITMAP
00
00
00
00
00
00
00
00
00
00
00
00
00
04
04
08
08
08
08
10
10
20
40
00
00
00
00
00
00
00
00
00
ENDCHAR
STARTCHAR C0067
ENCODING -1 103
SWIDTH 531 0
DWIDTH 17 0
BBX 17 32 0 0
BITMAP
000000
600000
580000
460000
418000
406000
401800
400600
400100
000000
000000
000000
000000
000000
000000
000000
000000
000000
000000
000000
000000
000000
000000
000000
000000
000000
000000
000000
000000
000000
000000
000000
ENDCHAR
STARTCHAR C0068
ENCODING -1 104
SWIDTH 500 0
DWIDTH 16 0
BBX 16 32 0 0
BITMAP
0000
0000
0000
0000
0000
0000
0000
0000
0000
4006
4018
4060
4180
4600
5800
6000
0000
0000
0000
0000
0000
0000
0000
0000
0000
0000
0000
0000
0000
0000
0000
0000
ENDCHAR
STARTCHAR C0069
ENCODING -1 105
SWIDTH 188 0
DWIDTH 6 0
BBX 6 32 0 0
BITMAP
00
00
70
88
88
88
70
00
00
00
00
00
00
00
00
00
00
00
00
00
00
00
00
00
00
00
00
00
00
00
00
00
ENDCHAR
STARTCHAR C006A
ENCODING -1 106
SWIDTH 1000 0
DWIDTH 32 0
BBX 32 32 0 0
BITMAP
00000000
00000000
04040400
0A0A0A00
F111111E
00A0A0A0
00404040
00000000
00000000
00000000
00000000
00000000
00000000
00000000
00000000
00000000
00000000
00000000
00000000
00000000
00000000
00000000
00000000
00000000
00000000
00000000
00000000
00000000
00000000
00000000
00000000
00000000
ENDCHAR
STARTCHAR C006B
ENCODING -1 107
SWIDTH 250 0
DWIDTH 8 0
BBX 8 32 0 0
BITMAP
08
08
08
08
10
20
10
08
04
02
04
08
10
20
10
08
04
02
04
08
10
20
10
08
04
02
04
08
08
08
08
08
ENDCHAR
STARTCHAR C006C
ENCODING -1 108
SWIDTH 562 0
DWIDTH 18 0
BBX 18 32 0 0
BITMAP
024000
024000
024000
024000
FE7F80
024000
024000
024000
024000
000000
000000
000000
000000
000000
000000
000000
000000
000000
000000
000000
000000
000000
000000
000000
000000
000000
000000
000000
000000
000000
000000
000000
ENDCHAR
STARTCHAR C006D
ENCODING -1 109
SWIDTH 312 0
DWIDTH 10 0
BBX 10 32 0 0
BITMAP
0800
0800
0800
0800
0800
0800
FF80
0000
0000
FF80
0800
0800
0800
0800
0800
0800
0000
0000
0000
0000
0000
0000
0000
0000
0000
0000
0000
0000
0000
0000
0000
0000
ENDCHAR
STARTCHAR C006E
ENCODING -1 110
SWIDTH 312 0
DWIDTH 10 0
BBX 10 32 0 0
BITMAP
0800
0800
FF80
8080
4100
2200
1400
0800
0000
0000
0000
0000
0000
0000
0000
0000
0000
0000
0000
0000
0000
0000
0000
0000
0000
0000
0000
0000
0000
0000
0000
0000
ENDCHAR
STARTCHAR C006F
ENCODING -1 111
SWIDTH 31 0
DWIDTH 1 0
BBX 1 32 0 0
BITMAP
00
00
00
00
00
00
00
00
00
00
00
00
00
00
00
00
00
00
00
00
00
00
00
00
00
00
00
00
00
00
00
00
ENDCHAR
STARTCHAR C0070
ENCODING -1 112
SWIDTH 656 0
DWIDTH 21 0
BBX 21 32 0 0
BITMAP
1FFF80
200040
400020
800010
800010
800010
400020
200040
1FFF80
000000
000000
000000
000000
000000
000000
000000
000000
000000
000000
000000
000000
000000
000000
000000
000000
000000
000000
000000
000000
000000
000000
000000
ENDCHAR
STARTCHAR C0071
ENCODING -1 113
SWIDTH 281 0
DWIDTH 9 0
BBX 9 32 0 0
BITMAP
0800
1400
1400
2200
2200
4100
4100
0000
0000
0000
0000
0000
0000
0000
0000
0000
0000
0000
0000
0000
0000
0000
0000
0000
0000
0000
0000
0000
0000
0000
0000
0000
ENDCHAR
STARTCHAR C0072
ENCODING -1 114
SWIDTH 281 0
DWIDTH 9 0
BBX 9 32 0 0
BITMAP
0000
0000
4100
4100
2200
2200
1400
1400
0800
0000
0000
0000
0000
0000
0000
0000
0000
0000
0000
0000
0000
0000
0000
0000
0000
0000
0000
0000
0000
0000
0000
0000
ENDCHAR
STARTCHAR C0073
ENCODING -1 115
SWIDTH 0 0
DWIDTH 0 0
BBX 0 32 0 0
BITMAP
00
00
00
00
00
00
00
00
00
00
00
00
00
00
00
00
00
00
00
00
00
00
00
00
00
00
00
00
00
00
00
00
ENDCHAR
STARTCHAR C0074
ENCODING -1 116
SWIDTH 0 0
DWIDTH 0 0
BBX 0 32 0 0
BITMAP
00
00
00
00
00
00
00
00
00
00
00
00
00
00
00
00
00
00
00
00
00
00
00
00
00
00
00
00
00
00
00
00
ENDCHAR
STARTCHAR C0075
ENCODING -1 117
SWIDTH 0 0
DWIDTH 0 0
BBX 0 32 0 0
BITMAP
00
00
00
00
00
00
00
00
00
00
00
00
00
00
00
00
00
00
00
00
00
00
00
00
00
00
00
00
00
00
00
00
ENDCHAR
STARTCHAR C0076
ENCODING -1 118
SWIDTH 0 0
DWIDTH 0 0
BBX 0 32 0 0
BITMAP
00
00
00
00
00
00
00
00
00
00
00
00
00
00
00
00
00
00
00
00
00
00
00
00
00
00
00
00
00
00
00
00
ENDCHAR
STARTCHAR C0077
ENCODING -1 119
SWIDTH 0 0
DWIDTH 0 0
BBX 0 32 0 0
BITMAP
00
00
00
00
00
00
00
00
00
00
00
00
00
00
00
00
00
00
00
00
00
00
00
00
00
00
00
00
00
00
00
00
ENDCHAR
STARTCHAR C0078
ENCODING -1 120
SWIDTH 281 0
DWIDTH 9 0
BBX 9 32 0 0
BITMAP
0000
4100
2200
1400
0800
1400
2200
4100
0000
0000
0000
0000
0000
0000
0000
0000
0000
0000
0000
0000
0000
0000
0000
0000
0000
0000
0000
0000
0000
0000
0000
0000
ENDCHAR
STARTCHAR C0079
ENCODING -1 121
SWIDTH 656 0
DWIDTH 21 0
BBX 21 32 0 0
BITMAP
000000
000000
000000
000000
000000
000000
000000
000000
000000
000000
000000
200000
200000
200000
200000
200000
3FFFE0
088880
000000
000000
000000
000000
000000
000000
000000
000000
000000
000000
000000
000000
000000
000000
ENDCHAR
STARTCHAR C007A
ENCODING -1 122
SWIDTH 594 0
DWIDTH 19 0
BBX 19 32 0 0
BITMAP
000000
000000
000000
000000
000000
000000
000000
000000
000000
000000
000000
000080
000080
000080
000080
000080
7FFF80
222200
000000
000000
000000
000000
000000
000000
000000
000000
000000
000000
000000
000000
000000
000000
ENDCHAR
STARTCHAR C007B
ENCODING -1 123
SWIDTH 0 0
DWIDTH 0 0
BBX 0 32 0 0
BITMAP
00
00
00
00
00
00
00
00
00
00
00
00
00
00
00
00
00
00
00
00
00
00
00
00
00
00
00
00
00
00
00
00
ENDCHAR
STARTCHAR C007C
ENCODING -1 124
SWIDTH 0 0
DWIDTH 0 0
BBX 0 32 0 0
BITMAP
00
00
00
00
00
00
00
00
00
00
00
00
00
00
00
00
00
00
00
00
00
00
00
00
00
00
00
00
00
00
00
00
ENDCHAR
STARTCHAR C007D
ENCODING -1 125
SWIDTH 0 0
DWIDTH 0 0
BBX 0 32 0 0
BITMAP
00
00
00
00
00
00
00
00
00
00
00
00
00
00
00
00
00
00
00
00
00
00
00
00
00
00
00
00
00
00
00
00
ENDCHAR
STARTCHAR C007E
ENCODING -1 126
SWIDTH 188 0
DWIDTH 6 0
BBX 6 32 0 0
BITMAP
70
88
80
F0
88
88
70
00
00
00
00
00
00
00
00
00
00
00
00
00
00
00
00
00
00
00
00
00
00
00
00
00
ENDCHAR
STARTCHAR C007F
ENCODING -1 127
SWIDTH 0 0
DWIDTH 0 0
BBX 0 32 0 0
BITMAP
00
00
00
00
00
00
00
00
00
00
00
00
00
00
00
00
00
00
00
00
00
00
00
00
00
00
00
00
00
00
00
00
ENDCHAR
ENDFONT
